<svg width="32px" height="15px" viewBox="0 0 32 15" version="1.1" xmlns="http://www.w3.org/2000/svg" xmlns:xlink="http://www.w3.org/1999/xlink">
  <g id="Page-1" stroke="#999999" stroke-width="1" fill="none" fill-rule="evenodd">
    <path d="M5.99650016,4.4931398 C5.00224844,4.4931398 4.19624817,3.71117382 4.19624817,2.7465699 C4.19624817,1.78196598 5.00224844,1 5.99650016,1 C6.99075188,1 7.79675215,1.78196598 7.79675215,2.7465699 C7.79675215,3.71117382 6.99075188,4.4931398 5.99650016,4.4931398 Z M12.5974241,4.4931398 C11.6031724,4.4931398 10.7971721,3.71117382 10.7971721,2.7465699 C10.7971721,1.78196598 11.6031724,1 12.5974241,1 C13.5916758,1 14.3976761,1.78196598 14.3976761,2.7465699 C14.3976761,3.71117382 13.5916758,4.4931398 12.5974241,4.4931398 Z M19.1983481,4.4931398 C18.2040964,4.4931398 17.3980961,3.71117382 17.3980961,2.7465699 C17.3980961,1.78196598 18.2040964,1 19.1983481,1 C20.1925998,1 20.9986001,1.78196598 20.9986001,2.7465699 C20.9986001,3.71117382 20.1925998,4.4931398 19.1983481,4.4931398 Z M25.799272,4.4931398 C24.8050203,4.4931398 23.99902,3.71117382 23.99902,2.7465699 C23.99902,1.78196598 24.8050203,1 25.799272,1 C26.7935238,1 27.599524,1.78196598 27.599524,2.7465699 C27.599524,3.71117382 26.7935238,4.4931398 25.799272,4.4931398 Z M9.39697614,9.2476912 C8.40272442,9.2476912 7.59672415,8.46572522 7.59672415,7.5011213 C7.59672415,6.53651738 8.40272442,5.7545514 9.39697614,5.7545514 C10.3912279,5.7545514 11.1972281,6.53651738 11.1972281,7.5011213 C11.1972281,8.46572522 10.3912279,9.2476912 9.39697614,9.2476912 Z M2.80025199,9.2476912 C1.80600027,9.2476912 1,8.46572522 1,7.5011213 C1,6.53651738 1.80600027,5.7545514 2.80025199,5.7545514 C3.79450371,5.7545514 4.60050398,6.53651738 4.60050398,7.5011213 C4.60050398,8.46572522 3.79450371,9.2476912 2.80025199,9.2476912 Z M15.9979001,9.2476912 C15.0036484,9.2476912 14.1976481,8.46572522 14.1976481,7.5011213 C14.1976481,6.53651738 15.0036484,5.7545514 15.9979001,5.7545514 C16.9921518,5.7545514 17.7981521,6.53651738 17.7981521,7.5011213 C17.7981521,8.46572522 16.9921518,9.2476912 15.9979001,9.2476912 Z M22.5988241,9.2476912 C21.6045723,9.2476912 20.7985721,8.46572522 20.7985721,7.5011213 C20.7985721,6.53651738 21.6045723,5.7545514 22.5988241,5.7545514 C23.5930758,5.7545514 24.399076,6.53651738 24.399076,7.5011213 C24.399076,8.46572522 23.5930758,9.2476912 22.5988241,9.2476912 Z M29.199748,9.2476912 C28.2054963,9.2476912 27.399496,8.46572522 27.399496,7.5011213 C27.399496,6.53651738 28.2054963,5.7545514 29.199748,5.7545514 C30.1939997,5.7545514 31,6.53651738 31,7.5011213 C31,8.46572522 30.1939997,9.2476912 29.199748,9.2476912 Z M5.99650016,14 C5.00224844,14 4.19624817,13.218034 4.19624817,12.2534301 C4.19624817,11.2888262 5.00224844,10.5068602 5.99650016,10.5068602 C6.99075188,10.5068602 7.79675215,11.2888262 7.79675215,12.2534301 C7.79675215,13.218034 6.99075188,14 5.99650016,14 Z M12.5974241,14 C11.6031724,14 10.7971721,13.218034 10.7971721,12.2534301 C10.7971721,11.2888262 11.6031724,10.5068602 12.5974241,10.5068602 C13.5916758,10.5068602 14.3976761,11.2888262 14.3976761,12.2534301 C14.3976761,13.218034 13.5916758,14 12.5974241,14 Z M19.1983481,14 C18.2040964,14 17.3980961,13.218034 17.3980961,12.2534301 C17.3980961,11.2888262 18.2040964,10.5068602 19.1983481,10.5068602 C20.1925998,10.5068602 20.9986001,11.2888262 20.9986001,12.2534301 C20.9986001,13.218034 20.1925998,14 19.1983481,14 Z M25.799272,14 C24.8050203,14 23.99902,13.218034 23.99902,12.2534301 C23.99902,11.2888262 24.8050203,10.5068602 25.799272,10.5068602 C26.7935238,10.5068602 27.599524,11.2888262 27.599524,12.2534301 C27.599524,13.218034 26.7935238,14 25.799272,14 Z" id="Combined-Shape-Copy"></path>
  </g>
</svg>