  <svg width="35px" height="7px" viewBox="0 0 35 7" version="1.1" xmlns="http://www.w3.org/2000/svg" xmlns:xlink="http://www.w3.org/1999/xlink" class="svg__circle-divider-end">
    <g id="Page-1" stroke="none" stroke-width="1" fill="#B0B6B7" fill-rule="evenodd">
      <path d="M3.5,7 C1.56700338,7 0,5.43299662 0,3.5 C0,1.56700338 1.56700338,0 3.5,0 C5.43299662,0 7,1.56700338 7,3.5 C7,5.43299662 5.43299662,7 3.5,7 Z M3.5,5 C4.32842712,5 5,4.32842712 5,3.5 C5,2.67157288 4.32842712,2 3.5,2 C2.67157288,2 2,2.67157288 2,3.5 C2,4.32842712 2.67157288,5 3.5,5 Z" id="Combined-Shape" class="circle-divider--left"></path>
      <path d="M17.5,7 C15.5670034,7 14,5.43299662 14,3.5 C14,1.56700338 15.5670034,0 17.5,0 C19.4329966,0 21,1.56700338 21,3.5 C21,5.43299662 19.4329966,7 17.5,7 Z M17.5,5 C18.3284271,5 19,4.32842712 19,3.5 C19,2.67157288 18.3284271,2 17.5,2 C16.6715729,2 16,2.67157288 16,3.5 C16,4.32842712 16.6715729,5 17.5,5 Z" id="Combined-Shape" class="circle-divider--center"></path>
      <path d="M31.5,7 C29.5670034,7 28,5.43299662 28,3.5 C28,1.56700338 29.5670034,0 31.5,0 C33.4329966,0 35,1.56700338 35,3.5 C35,5.43299662 33.4329966,7 31.5,7 Z M31.5,5 C32.3284271,5 33,4.32842712 33,3.5 C33,2.67157288 32.3284271,2 31.5,2 C30.6715729,2 30,2.67157288 30,3.5 C30,4.32842712 30.6715729,5 31.5,5 Z" id="Combined-Shape" class="circle-divider--right"></path>
    </g>
  </svg>
