<svg width="180px" height="180px" viewBox="0 0 180 180" version="1.1" xmlns="http://www.w3.org/2000/svg" xmlns:xlink="http://www.w3.org/1999/xlink" class="svg__cxo-icon {{context_class ? context_class: ''}}">
  <g id="CXO-Icon" stroke="none" stroke-width="1" fill="none" fill-rule="evenodd">
    <circle id="Oval" fill="#F8E71C" cx="90" cy="90" r="90"></circle>
    <path d="M90.1190131,100.329285 C85.3718978,124.223157 64.2869385,142.238026 39,142.238026 L39,109.663643 C49.7944267,109.663643 58.5446299,100.91344 58.5446299,90.1190131 C58.5446299,79.3245864 49.7944267,70.5743832 39,70.5743832 L39,38 C64.2869385,38 85.3718978,56.0148687 90.1190131,79.9087414 C94.8661283,56.0148687 115.951088,38 141.238026,38 L141.238026,70.5743832 C130.443599,70.5743832 121.693396,79.3245864 121.693396,90.1190131 C121.693396,100.91344 130.443599,109.663643 141.238026,109.663643 L141.238026,142.238026 C115.951088,142.238026 94.8661283,124.223157 90.1190131,100.329285 Z" id="CXO-X" fill="#000000"></path>
  </g>
</svg>
