<svg width="20px" height="20px" viewBox="0 0 20 20" version="1.1" xmlns="http://www.w3.org/2000/svg" xmlns:xlink="http://www.w3.org/1999/xlink" class="svg__linkedin {{context_class ? context_class: ''}}">
  <g id="LinkedIn" stroke="none" stroke-width="1" fill="#000000" fill-rule="evenodd">
    <path d="M7,6.33874815 L10.9965161,6.33874815 L10.9965161,8.2066341 L11.0535199,8.2066341 C11.6095026,7.13234125 12.970567,6 14.9984983,6 C19.2199063,6 20,8.82846757 20,12.5077814 L20,20 L15.8316915,20 L15.8316915,13.3562422 C15.8316915,11.7722367 15.8043609,9.73418153 13.6647645,9.73418153 C11.495495,9.73418153 11.1644041,11.4605248 11.1644041,13.2433261 L11.1644041,20 L7,20 L7,6.33874815 Z" id="Fill-4"></path>
    <path d="M2.50121104,0 C3.88018731,0 5,1.0785381 5,2.40746501 C5,3.73716952 3.88018731,4.81570762 2.50121104,4.81570762 C1.11658324,4.81570762 0,3.73716952 0,2.40746501 C0,1.0785381 1.11658324,0 2.50121104,0 Z M0.342321976,20 L4.65767802,20 L4.65767802,6.6407465 L0.342321976,6.6407465 L0.342321976,20 Z" id="Fill-1"></path>
  </g>
</svg>
