<svg width="494px" height="192px" viewBox="0 0 494 192" version="1.1" xmlns="http://www.w3.org/2000/svg" xmlns:xlink="http://www.w3.org/1999/xlink" class="cxo-logo--svg">
    <title>CXO Magazine</title>
    <g id="Logo-CxO" stroke="none" stroke-width="1" fill="none" fill-rule="evenodd">
      <path d="M157.094454,92 C151.313436,129.935233 118.551334,159 79,159 C35.3700556,159 0,123.629944 0,80 C0,36.3700556 35.3700556,1 79,1 C118.551334,1 151.313436,30.0647674 157.094454,68 L106.503858,68 C101.874628,57.4044487 91.3022282,50 79,50 C62.4311111,50 49,63.4311111 49,80 C49,96.5688889 62.4311111,110 79,110 C91.3022282,110 101.874628,102.595551 106.503853,92.0000008 L157.094454,92 L157.094454,92 Z" id="cxo-c" class="cxo-logo--c" fill="#FFFFFF"></path>
      <path d="M326,159 L326,109.625 C309.31815,109.625 295.79547,96.3617778 295.79547,80 C295.79547,63.6382222 309.31815,50.375 326,50.375 L326,1 C286.92123,1 254.336255,28.3062467 247,64.523662 C239.663745,28.3062467 207.07877,1 168,1 L168,50.375 C184.68185,50.375 198.20453,63.6382222 198.20453,80 C198.20453,96.3617778 184.68185,109.625 168,109.625 L168,159 C207.07877,159 239.663745,131.693753 247,95.476338 C254.336255,131.693753 286.92123,159 326,159 Z" id="cxo-x" class="cxo-logo--x" fill="#F8E71C"></path>
      <path d="M494,80 C494,123.629944 458.629944,159 415,159 C371.370056,159 336,123.629944 336,80 C336,36.3700556 371.370056,1 415,1 C458.629944,1 494,36.3700556 494,80 Z M445,80 C445,63.4311111 431.568889,50 415,50 C398.431111,50 385,63.4311111 385,80 C385,96.5688889 398.431111,110 415,110 C431.568889,110 445,96.5688889 445,80 Z" id="cxo-o" class="cxo-logo--o" fill="#FFFFFF"></path>
      <path d="M171,192.082354 L173.925799,192.082354 L173.925799,183.318567 C173.925799,180.975309 173.902204,179.07727 173.878609,177.694747 L173.902204,177.694747 C174.256132,178.819511 174.515678,179.99114 175.058367,181.607989 L178.59764,192.082354 L181.547035,192.082354 L184.496429,183.365432 C185.251474,181.022174 186.05371,178.678916 186.289661,177.81191 L186.313256,177.81191 C186.313256,179.147567 186.266066,181.772017 186.266066,183.552893 L186.266066,192.082354 L189.239056,192.082354 L189.239056,175.328056 L184.661595,175.328056 L181.665011,184.06841 C181.287488,185.169741 180.626824,187.231809 180.131325,188.614331 L180.10773,188.614331 C179.659422,187.231809 179.116734,185.404067 178.739211,184.232438 L175.719031,175.328056 L171,175.328056 L171,192.082354 Z M198.299596,192.082354 L195.232226,192.082354 C196.553555,189.05955 197.662527,186.083612 202.192797,175.328056 L205.448929,175.328056 L212.291524,192.082354 L209.176963,192.082354 C208.516299,190.465505 207.902825,188.87209 207.265756,187.255241 L200.187209,187.255241 L198.299596,192.082354 Z M203.773673,178.022803 L203.726482,178.022803 C202.995032,179.873977 202.334368,181.748584 201.602918,183.552893 L201.178205,184.70109 L206.274759,184.70109 C206.227569,184.560494 206.180378,184.419899 206.109593,184.279303 L205.826451,183.552893 L205.000621,181.397095 C204.552313,180.202034 204.056814,178.842944 203.773673,178.022803 Z M229.806384,191.047577 L230.53058,191.333227 L230.53058,190.395208 C230.320906,190.622807 230.079993,190.842401 229.806384,191.047577 Z M230.53058,191.333227 L229.806384,191.047577 C228.756027,191.835228 227.223819,192.41041 225.127289,192.41041 C220.408258,192.41041 216.89258,188.895522 216.89258,183.716921 C216.89258,178.702348 220.313878,175 225.504812,175 C229.468798,175 232.300217,177.319826 233.244023,180.319197 L229.846321,180.319197 C229.067681,178.561753 227.581186,177.554152 225.481217,177.554152 C221.989134,177.554152 219.983545,180.155168 219.983545,183.670056 C219.983545,187.278674 222.083514,189.903123 225.575597,189.903123 C228.737348,189.903123 230.341819,187.958219 230.53058,185.591528 L224.702577,185.591528 L224.702577,183.224837 L233.244023,183.224837 L233.244023,192.082354 L230.53058,192.082354 L230.53058,191.333227 Z M241.643899,192.082354 L238.576529,192.082354 C239.897858,189.05955 241.00683,186.083612 245.5371,175.328056 L248.793232,175.328056 L255.635827,192.082354 L252.521266,192.082354 C251.860602,190.465505 251.247128,188.87209 250.610059,187.255241 L243.531512,187.255241 L241.643899,192.082354 Z M247.117976,178.022803 L247.070785,178.022803 C246.339335,179.873977 245.678671,181.748584 244.947221,183.552893 L244.522508,184.70109 L249.619062,184.70109 C249.571872,184.560494 249.524681,184.419899 249.453896,184.279303 L249.170754,183.552893 L248.344924,181.397095 C247.896616,180.202034 247.401117,178.842944 247.117976,178.022803 Z M260.54362,192.082354 L272.246817,192.082354 L272.246817,189.481337 L264.106489,189.481337 C264.366035,189.036118 264.861534,188.380005 265.427817,187.513 L270.194039,180.202034 L271.397392,178.374292 C271.562558,178.116534 271.727724,177.858775 271.89289,177.647882 L271.89289,175.328056 L260.850357,175.328056 L260.850357,177.952506 L268.282831,177.952506 L267.055883,179.850545 L262.549208,186.78659 C261.864949,187.911354 260.921142,189.200146 260.54362,189.832826 L260.54362,192.082354 Z M279.207389,192.082354 L282.203974,192.082354 L282.203974,175.328056 L279.207389,175.328056 L279.207389,192.082354 Z M290.344303,192.082354 L293.270103,192.082354 L293.270103,184.818253 C293.270103,183.318567 293.246507,180.319197 293.246507,179.381893 L293.270103,179.381893 C293.529649,179.850545 294.331885,181.139337 295.346476,182.896781 L300.773362,192.082354 L304.336231,192.082354 L304.336231,175.328056 L301.481217,175.328056 L301.481217,183.599758 C301.481217,185.216607 301.504812,187.067781 301.504812,188.028517 L301.481217,188.051949 C301.032909,187.278674 300.207079,185.919584 299.640795,184.935416 L294.025148,175.328056 L290.344303,175.328056 L290.344303,192.082354 Z M312.47656,192.082354 L323,192.082354 L323,189.481337 L315.44955,189.481337 L315.44955,184.865118 L322.26855,184.865118 L322.26855,182.240668 L315.44955,182.240668 L315.44955,177.975938 L322.834834,177.975938 L322.834834,175.328056 L312.47656,175.328056 L312.47656,192.082354 Z" id="Magazine" class="cxo-logo--magazine" fill="#F8E71C"></path>
    </g>
</svg>