
<svg width="99px" height="46px" viewBox="0 0 99 46" version="1.1" xmlns="http://www.w3.org/2000/svg" xmlns:xlink="http://www.w3.org/1999/xlink" class="cxo-magazine-logo--svg">
  <title>CXO Magazine</title>
  <g id="Page-1" stroke="none" stroke-width="1" fill="none" fill-rule="evenodd">
    <g id="CxO-Logo" class="cxo-magazine-logo--cxo">
      <path d="M99,15.872 C99,24.6377529 91.90808,31.744 83.16,31.744 C74.41192,31.744 67.32,24.6377529 67.32,15.872 C67.32,7.10624711 74.41192,0 83.16,0 C91.90808,0 99,7.10624711 99,15.872 Z M89.1751899,15.872 C89.1751899,12.5431215 86.4821671,9.84465823 83.16,9.84465823 C79.8378329,9.84465823 77.1448101,12.5431215 77.1448101,15.872 C77.1448101,19.2008785 79.8378329,21.8993418 83.16,21.8993418 C86.4821671,21.8993418 89.1751899,19.2008785 89.1751899,15.872 Z" id="Combined-Shape" fill="#FFFFFF"></path>
      <path d="M50.16,18.9813726 C51.6309655,26.257864 58.1644593,31.744 66,31.744 L66,21.824 C62.6551835,21.824 59.9438006,19.1592676 59.9438006,15.872 C59.9438006,12.5847324 62.6551835,9.92 66,9.92 L66,0 C58.1644593,5.00863128e-16 51.6309655,5.48613604 50.16,12.7626274 C48.6890345,5.48613604 42.1555407,1.43998149e-15 34.32,0 L34.32,9.92 C37.6648165,9.92 40.3761994,12.5847324 40.3761994,15.872 C40.3761994,19.1592676 37.6648165,21.824 34.32,21.824 L34.32,31.744 C42.1555407,31.744 48.6890345,26.257864 50.16,18.9813726 Z" id="Combined-Shape" fill="#FDEC13"></path>
      <path d="M31.68,18.2829367 C30.5141875,25.9045571 23.9073128,31.744 15.9313071,31.744 C7.13280023,31.744 0,24.6377529 0,15.872 C0,7.10624711 7.13280023,0 15.9313071,0 C23.9073128,0 30.5141875,5.83944289 31.68,13.4610633 L21.4777924,13.4610633 C20.5442532,11.3322964 18.4122006,9.84465823 15.9313071,9.84465823 C12.5899899,9.84465823 9.88144366,12.5431215 9.88144366,15.872 C9.88144366,19.2008785 12.5899899,21.8993418 15.9313071,21.8993418 C18.4122006,21.8993418 20.5442532,20.4117036 21.4777924,18.2829367 L31.68,18.2829367 Z" id="Combined-Shape" fill="#FFFFFF"></path>
    </g>
    <path d="M15.2655,45 L15.2655,37.135 L17.4655,37.135 L18.8735,41.315 C19.0495,41.865 19.3025,42.723 19.5115,43.372 L19.5225,43.372 C19.7535,42.723 20.0615,41.755 20.2375,41.238 L21.6345,37.135 L23.7685,37.135 L23.7685,45 L22.3825,45 L22.3825,40.996 C22.3825,40.16 22.4045,38.928 22.4045,38.301 L22.3935,38.301 C22.2835,38.708 21.9095,39.808 21.5575,40.908 L20.1825,45 L18.8075,45 L17.1575,40.083 C16.9045,39.324 16.7835,38.774 16.6185,38.246 L16.6075,38.246 C16.6185,38.895 16.6295,39.786 16.6295,40.886 L16.6295,45 L15.2655,45 Z M27.5675,45 L26.1375,45 C26.7535,43.581 27.2705,42.184 29.3825,37.135 L30.9005,37.135 L34.0905,45 L32.6385,45 C32.3305,44.241 32.0445,43.493 31.7475,42.734 L28.4475,42.734 L27.5675,45 Z M30.1195,38.4 L30.0975,38.4 C29.7565,39.269 29.4485,40.149 29.1075,40.996 L28.9095,41.535 L31.2855,41.535 C31.2635,41.469 31.2415,41.403 31.2085,41.337 L31.0765,40.996 L30.6915,39.984 C30.4825,39.423 30.2515,38.785 30.1195,38.4 Z M39.4515,40.842 L43.4335,40.842 L43.4335,45 L42.1685,45 L42.1685,44.208 C41.6955,44.725 40.8815,45.154 39.6495,45.154 C37.4495,45.154 35.8105,43.504 35.8105,41.073 C35.8105,38.719 37.4055,36.981 39.8255,36.981 C41.6735,36.981 42.9935,38.07 43.4335,39.478 L41.8495,39.478 C41.4865,38.653 40.7935,38.18 39.8145,38.18 C38.1865,38.18 37.2515,39.401 37.2515,41.051 C37.2515,42.745 38.2305,43.977 39.8585,43.977 C41.3325,43.977 42.0805,43.064 42.1685,41.953 L39.4515,41.953 L39.4515,40.842 Z M46.9245,45 L45.4945,45 C46.1105,43.581 46.6275,42.184 48.7395,37.135 L50.2575,37.135 L53.4475,45 L51.9955,45 C51.6875,44.241 51.4015,43.493 51.1045,42.734 L47.8045,42.734 L46.9245,45 Z M49.4765,38.4 L49.4545,38.4 C49.1135,39.269 48.8055,40.149 48.4645,40.996 L48.2665,41.535 L50.6425,41.535 C50.6205,41.469 50.5985,41.403 50.5655,41.337 L50.4335,40.996 L50.0485,39.984 C49.8395,39.423 49.6085,38.785 49.4765,38.4 Z M55.3105,45 L55.3105,43.944 C55.4865,43.647 55.9265,43.042 56.2455,42.514 L58.3465,39.258 L58.9185,38.367 L55.4535,38.367 L55.4535,37.135 L60.6015,37.135 L60.6015,38.224 C60.5245,38.323 60.4475,38.444 60.3705,38.565 L59.8095,39.423 L57.5875,42.855 C57.3235,43.262 57.0925,43.57 56.9715,43.779 L60.7665,43.779 L60.7665,45 L55.3105,45 Z M63.5865,45 L63.5865,37.135 L64.9835,37.135 L64.9835,45 L63.5865,45 Z M68.3535,45 L68.3535,37.135 L70.0695,37.135 L72.6875,41.645 C72.9515,42.107 73.3365,42.745 73.5455,43.108 L73.5565,43.097 C73.5565,42.646 73.5455,41.777 73.5455,41.018 L73.5455,37.135 L74.8765,37.135 L74.8765,45 L73.2155,45 L70.6855,40.688 C70.2125,39.863 69.8385,39.258 69.7175,39.038 L69.7065,39.038 C69.7065,39.478 69.7175,40.886 69.7175,41.59 L69.7175,45 L68.3535,45 Z M78.2465,45 L78.2465,37.135 L83.0755,37.135 L83.0755,38.378 L79.6325,38.378 L79.6325,40.38 L82.8115,40.38 L82.8115,41.612 L79.6325,41.612 L79.6325,43.779 L83.1525,43.779 L83.1525,45 L78.2465,45 Z" id="Magazine" fill="#FDEC13" class="cxo-magazine-logo--magazine"></path>
  </g>
</svg>
