<svg width="494px" height="158px" viewBox="0 0 494 158" version="1.1" xmlns="http://www.w3.org/2000/svg" xmlns:xlink="http://www.w3.org/1999/xlink" class="cxo-logo--svg">
    <title>CXO Magazine</title>
    <g id="Logo-CxO" stroke="none" stroke-width="1" fill="none" fill-rule="evenodd">
        <path d="M157.094454,92 C151.313436,129.935233 118.551334,159 79,159 C35.3700556,159 0,123.629944 0,80 C0,36.3700556 35.3700556,1 79,1 C118.551334,1 151.313436,30.0647674 157.094454,68 L106.503858,68 C101.874628,57.4044487 91.3022282,50 79,50 C62.4311111,50 49,63.4311111 49,80 C49,96.5688889 62.4311111,110 79,110 C91.3022282,110 101.874628,102.595551 106.503853,92.0000008 L157.094454,92 L157.094454,92 Z" id="cxo-c" class="cxo-logo--c" fill="#FFFFFF"></path>
        <path d="M326,159 L326,109.625 C309.31815,109.625 295.79547,96.3617778 295.79547,80 C295.79547,63.6382222 309.31815,50.375 326,50.375 L326,1 C286.92123,1 254.336255,28.3062467 247,64.523662 C239.663745,28.3062467 207.07877,1 168,1 L168,50.375 C184.68185,50.375 198.20453,63.6382222 198.20453,80 C198.20453,96.3617778 184.68185,109.625 168,109.625 L168,159 C207.07877,159 239.663745,131.693753 247,95.476338 C254.336255,131.693753 286.92123,159 326,159 Z" id="cxo-x" class="cxo-logo--x" fill="#F8E71C"></path>
        <path d="M494,80 C494,123.629944 458.629944,159 415,159 C371.370056,159 336,123.629944 336,80 C336,36.3700556 371.370056,1 415,1 C458.629944,1 494,36.3700556 494,80 Z M445,80 C445,63.4311111 431.568889,50 415,50 C398.431111,50 385,63.4311111 385,80 C385,96.5688889 398.431111,110 415,110 C431.568889,110 445,96.5688889 445,80 Z" id="cxo-o" class="cxo-logo--o" fill="#FFFFFF"></path>
    </g>
</svg>