<svg width="22px" height="18px" viewBox="0 0 22 18" version="1.1" xmlns="http://www.w3.org/2000/svg" xmlns:xlink="http://www.w3.org/1999/xlink">
  <g id="Page-1" stroke="none" stroke-width="1" fill-rule="nonzero" fill="#000000">
    <path d="M2.60877684,3.56295129 C2.63611016,3.292889 2.53312366,3.02596246 2.33146592,2.84420031 L0.277310924,0.369643362 L0.277310924,0 L6.65546218,0 L11.5854342,10.8120683 L15.9197013,0 L22,0 L22,0.369643362 L20.2436975,2.05357423 C20.0922849,2.16898969 20.0171766,2.35868318 20.0485528,2.54643205 L20.0485528,14.9192169 C20.0171766,15.1069657 20.0922849,15.2966591 20.2436975,15.4120746 L21.9589169,17.0960055 L21.9589169,17.4656489 L13.331466,17.4656489 L13.331466,17.0960055 L15.1083101,15.3710032 C15.2829131,15.1964493 15.2829131,15.14511 15.2829131,14.8781454 L15.2829131,4.87723881 L10.3426704,17.4245774 L9.67507004,17.4245774 L3.92343603,4.87723881 L3.92343603,13.2866253 C3.875481,13.6401795 3.99290258,13.9961313 4.24183006,14.2518052 L6.55275443,17.054934 L6.55275443,17.4245774 L0,17.4245774 L0,17.054934 L2.31092437,14.2518052 C2.55803944,13.9957074 2.66861407,13.6373944 2.60877684,13.2866253 L2.60877684,3.56295129 Z" id="Shape"></path>
  </g>
</svg>