<svg width="21px" height="19px" viewBox="0 0 21 19" version="1.1" xmlns="http://www.w3.org/2000/svg" xmlns:xlink="http://www.w3.org/1999/xlink" class="svg__twitter {{context_class ? context_class: ''}}">
  <g id="Page-1" stroke="none" stroke-width="1" fill="#000000" fill-rule="evenodd">
    <path d="M18.52557,3.00437442 C19.41492,2.41077054 20.098155,1.47080032 20.419875,0.350691539 C19.58733,0.900342078 18.665325,1.29954595 17.68389,1.51463676 C16.89807,0.582381749 15.77835,0 14.53914,0 C12.15984,0 10.230675,2.14751809 10.230675,4.79640818 C10.230675,5.17234951 10.26879,5.53847148 10.34229,5.88951371 C6.76158,5.68950263 3.586905,3.77987031 1.46202,0.87789782 C1.09116,1.58629473 0.87864,2.41018605 0.87864,3.28925284 C0.87864,4.95340109 1.63926,6.42151277 2.79531,7.28175912 C2.08908,7.25674312 1.424745,7.04106782 0.843885,6.68172589 C0.843465,6.70183221 0.843465,6.72182163 0.843465,6.74216174 C0.843465,9.06607767 2.328585,11.0045836 4.29954,11.4454029 C3.938025,11.5549355 3.5574,11.6136179 3.16449,11.6136179 C2.88687,11.6136179 2.616915,11.5835753 2.353785,11.5275816 C2.902095,13.4331225 4.49316,14.8199906 6.37854,14.8585667 C4.904025,16.1451371 3.046365,16.9119826 1.02774,16.9119826 C0.67998,16.9119826 0.33705,16.8891876 0,16.8447667 C1.906695,18.2058006 4.171335,19 6.604395,19 C14.52906,19 18.862725,11.6910038 18.862725,5.35260496 C18.862725,5.14464488 18.85842,4.93773687 18.850125,4.73199783 C19.692015,4.05574765 20.422395,3.21104863 21,2.24910174 C20.22741,2.63065413 19.396965,2.88841241 18.52557,3.00437442 Z" id="Fill-1"></path>
  </g>
</svg>
